<svg fill="none" viewBox="0 0 24 24" xmlns="http://www.w3.org/2000/svg"><path clip-rule="evenodd" d="m5.5 2.5v-.5c0-.82843.67157-1.5 1.5-1.5s1.5.67157 1.5 1.5v.5h1.4742c.0159-.00025.0319-.00026.0479 0h1.9779c.8284 0 1.5.67157 1.5 1.5s-.6716 1.5-1.5 1.5h-.7488c-.5133 2.32318-1.49993 4.48263-2.95053 6.4736.97876 1.0256 2.13463 1.9382 3.47123 2.7402.7104.4262.9407 1.3476.5145 2.0579-.4262.7104-1.3476.9408-2.058.5145-1.46859-.8811-2.76261-1.8872-3.87918-3.0163-1.01596 1.037-2.17562 2.0209-3.47736 2.9507-.67412.4815-1.61095.3254-2.09246-.3487-.481514-.6742-.325376-1.611.34874-2.0925 1.25741-.8981 2.35457-1.8415 3.29368-2.8313-.72477-1.0496-1.33008-2.18031-1.81436-3.39101-.30767-.76918.06645-1.64213.83563-1.9498.76917-.30768 1.64213.06645 1.9498.83562.28223.70557.61369 1.37799.99493 2.01762.80681-1.25404 1.39707-2.57361 1.77434-3.96053h-6.16216c-.82843 0-1.5-.67157-1.5-1.5s.67157-1.5 1.5-1.5zm10.9912 14h2.0176l-1.0088-2.9144zm-1.0385 3-1.0352 2.9907c-.271.7828-1.1253 1.1978-1.9082.9268-.7828-.271-1.1978-1.1253-.9268-1.9082l4.5-12.99997c.4659-1.34577 2.3691-1.34577 2.835 0l4.5 12.99997c.271.7829-.144 1.6372-.9268 1.9082-.7829.271-1.6372-.144-1.9082-.9268l-1.0352-2.9907z" fill="#758ca3" fill-rule="evenodd"/></svg>